<svg xmlns="http://www.w3.org/2000/svg" xmlns:xlink="http://www.w3.org/1999/xlink" width="500" zoomAndPan="magnify" viewBox="0 0 375 374.999991" height="500" preserveAspectRatio="xMidYMid meet" version="1.0"><defs><clipPath id="5820f0ae27"><path d="M 187.5 0 C 83.945312 0 0 83.945312 0 187.5 C 0 291.054688 83.945312 375 187.5 375 C 291.054688 375 375 291.054688 375 187.5 C 375 83.945312 291.054688 0 187.5 0 Z M 187.5 0 " clip-rule="nonzero"/></clipPath><clipPath id="b30462ed9c"><path d="M 0 0 L 375 0 L 375 375 L 0 375 Z M 0 0 " clip-rule="nonzero"/></clipPath><clipPath id="ab393e817c"><path d="M 187.5 0 C 83.945312 0 0 83.945312 0 187.5 C 0 291.054688 83.945312 375 187.5 375 C 291.054688 375 375 291.054688 375 187.5 C 375 83.945312 291.054688 0 187.5 0 Z M 187.5 0 " clip-rule="nonzero"/></clipPath><clipPath id="725f08d389"><rect x="0" width="375" y="0" height="375"/></clipPath><clipPath id="9437c8109f"><path d="M 81.273438 33.550781 L 293.523438 33.550781 L 293.523438 268 L 81.273438 268 Z M 81.273438 33.550781 " clip-rule="nonzero"/></clipPath><clipPath id="9cd1454a96"><path d="M 110 141 L 265 141 L 265 341.800781 L 110 341.800781 Z M 110 141 " clip-rule="nonzero"/></clipPath></defs><g clip-path="url(#5820f0ae27)"><g transform="matrix(1, 0, 0, 1, 0, 0)"><g clip-path="url(#725f08d389)"><g clip-path="url(#b30462ed9c)"><g clip-path="url(#ab393e817c)"><rect x="-82.5" width="540" fill="#081f5c" height="539.999987" y="-82.499998" fill-opacity="1"/></g></g></g></g></g><g clip-path="url(#9437c8109f)"><path fill="#ffffff" d="M 187.5 33.753906 L 81.273438 95.078125 L 81.273438 217.789062 L 166.710938 267.117188 C 166.21875 257.03125 161.480469 247.617188 153.792969 241.222656 L 97.207031 208.5625 L 97.207031 104.304688 L 187.5 52.144531 L 277.792969 104.304688 L 277.792969 208.5625 L 221.207031 241.222656 C 213.519531 247.617188 208.78125 257.03125 208.289062 267.117188 L 293.722656 217.789062 L 293.722656 95.078125 Z M 187.5 33.753906 " fill-opacity="1" fill-rule="nonzero"/></g><path fill="#efb428" d="M 195.3125 190.785156 L 264.507812 179.40625 L 264.507812 146.316406 C 238.980469 138.011719 210.6875 141.394531 187.5 156.402344 C 182.332031 159.785156 176.921875 162.554688 171.324219 164.707031 Z M 195.3125 190.785156 " fill-opacity="1" fill-rule="nonzero"/><g clip-path="url(#9cd1454a96)"><path fill="#ffdc74" d="M 187.5 156.464844 C 164.371094 141.394531 136.015625 138.011719 110.492188 146.316406 L 110.492188 200.871094 L 155.269531 226.707031 C 170.277344 235.378906 179.566406 251.433594 179.566406 268.777344 C 179.566406 277.144531 177.414062 285.324219 173.351562 292.582031 C 168.1875 301.746094 163.632812 311.527344 163.632812 317.308594 C 163.632812 330.53125 174.335938 341.234375 187.5625 341.234375 C 200.785156 341.234375 211.488281 330.53125 211.488281 317.308594 C 211.488281 311.527344 206.9375 301.746094 201.769531 292.582031 C 197.710938 285.324219 195.558594 277.082031 195.558594 268.777344 C 195.558594 251.433594 204.84375 235.378906 219.851562 226.707031 L 264.632812 200.871094 L 264.632812 166.550781 C 239.042969 174.855469 210.6875 171.472656 187.5 156.464844 Z M 206.136719 317.367188 C 206.136719 327.640625 197.773438 335.945312 187.5625 335.945312 C 187.5 336.007812 201.09375 330.65625 206.136719 317.367188 Z M 206.136719 317.367188 " fill-opacity="1" fill-rule="nonzero"/></g></svg>