<svg xmlns="http://www.w3.org/2000/svg" xmlns:xlink="http://www.w3.org/1999/xlink" width="500" zoomAndPan="magnify" viewBox="0 0 375 374.999991" height="500" preserveAspectRatio="xMidYMid meet" version="1.0"><defs><g/><clipPath id="8616c3252f"><path d="M 0 87 L 138.75 87 L 138.75 240 L 0 240 Z M 0 87 " clip-rule="nonzero"/></clipPath><clipPath id="aaf66c10b7"><path d="M 19 157 L 120 157 L 120 287.929688 L 19 287.929688 Z M 19 157 " clip-rule="nonzero"/></clipPath><clipPath id="f6142f24ea"><rect x="0" width="86" y="0" height="37"/></clipPath><clipPath id="680f97b80b"><path d="M 0.121094 13 L 31 13 L 31 59 L 0.121094 59 Z M 0.121094 13 " clip-rule="nonzero"/></clipPath><clipPath id="715fa3fc25"><rect x="0" width="210" y="0" height="75"/></clipPath></defs><g clip-path="url(#8616c3252f)"><path fill="#081f5c" d="M 69.394531 87.0625 L 0 127.121094 L 0 207.285156 L 55.8125 239.507812 C 55.488281 232.917969 52.394531 226.773438 47.375 222.59375 L 10.40625 201.257812 L 10.40625 133.148438 L 69.394531 99.078125 L 128.378906 133.148438 L 128.378906 201.257812 L 91.410156 222.59375 C 86.390625 226.773438 83.296875 232.917969 82.972656 239.507812 L 138.785156 207.285156 L 138.785156 127.121094 Z M 69.394531 87.0625 " fill-opacity="1" fill-rule="nonzero"/></g><path fill="#bf8d01" d="M 74.496094 189.644531 L 119.699219 182.210938 L 119.699219 160.59375 C 103.023438 155.167969 84.539062 157.378906 69.394531 167.183594 C 66.015625 169.394531 62.480469 171.203125 58.824219 172.609375 Z M 74.496094 189.644531 " fill-opacity="1" fill-rule="nonzero"/><g clip-path="url(#aaf66c10b7)"><path fill="#efb428" d="M 69.394531 167.222656 C 54.285156 157.378906 35.761719 155.167969 19.085938 160.59375 L 19.085938 196.234375 L 48.335938 213.109375 C 58.140625 218.777344 64.210938 229.261719 64.210938 240.59375 C 64.210938 246.058594 62.804688 251.402344 60.152344 256.144531 C 56.777344 262.128906 53.800781 268.519531 53.800781 272.296875 C 53.800781 280.933594 60.792969 287.925781 69.433594 287.925781 C 78.070312 287.925781 85.0625 280.933594 85.0625 272.296875 C 85.0625 268.519531 82.089844 262.128906 78.714844 256.144531 C 76.0625 251.402344 74.65625 246.019531 74.65625 240.59375 C 74.65625 229.261719 80.722656 218.777344 90.527344 213.109375 L 119.78125 196.234375 L 119.78125 173.8125 C 103.0625 179.238281 84.539062 177.027344 69.394531 167.222656 Z M 81.566406 272.335938 C 81.566406 279.046875 76.101562 284.472656 69.433594 284.472656 C 69.394531 284.511719 78.273438 281.015625 81.566406 272.335938 Z M 81.566406 272.335938 " fill-opacity="1" fill-rule="nonzero"/></g><g transform="matrix(1, 0, 0, 1, 167, 179)"><g clip-path="url(#f6142f24ea)"><g fill="#081f5c" fill-opacity="1"><g transform="translate(0.636273, 24.411219)"><g><path d="M 4.46875 -12.578125 L 7.53125 -12.578125 C 10 -12.578125 11.234375 -11.535156 11.234375 -9.453125 L 11.234375 -5.171875 L 4.8125 -5.171875 L 4.8125 -3.5 C 4.8125 -3.132812 5.019531 -2.953125 5.4375 -2.953125 L 6.546875 -2.953125 C 6.972656 -2.953125 7.1875 -3.148438 7.1875 -3.546875 L 7.1875 -4.265625 L 11.234375 -4.265625 L 11.234375 -3.125 C 11.234375 -1.039062 10 0 7.53125 0 L 4.46875 0 C 1.988281 0 0.75 -1.039062 0.75 -3.125 L 0.75 -9.453125 C 0.75 -11.535156 1.988281 -12.578125 4.46875 -12.578125 Z M 4.8125 -7.484375 L 7.1875 -7.484375 L 7.1875 -9.078125 C 7.1875 -9.441406 6.972656 -9.625 6.546875 -9.625 L 5.4375 -9.625 C 5.019531 -9.625 4.8125 -9.441406 4.8125 -9.078125 Z M 4.8125 -7.484375 "/></g></g></g><g fill="#081f5c" fill-opacity="1"><g transform="translate(12.503251, 24.411219)"><g><path d="M 6.421875 -3.328125 L 6.421875 -4.328125 C 6.421875 -4.703125 6.210938 -4.890625 5.796875 -4.890625 L 4.265625 -4.890625 C 1.835938 -4.890625 0.625 -5.921875 0.625 -7.984375 L 0.625 -9.453125 C 0.625 -11.535156 1.859375 -12.578125 4.328125 -12.578125 L 6.671875 -12.578125 C 9.148438 -12.578125 10.390625 -11.535156 10.390625 -9.453125 L 10.390625 -8.390625 L 6.296875 -8.390625 L 6.296875 -9.25 C 6.296875 -9.613281 6.085938 -9.796875 5.671875 -9.796875 L 5.421875 -9.796875 C 4.992188 -9.796875 4.78125 -9.613281 4.78125 -9.25 L 4.78125 -8.140625 C 4.78125 -7.773438 4.992188 -7.59375 5.421875 -7.59375 L 6.953125 -7.59375 C 8.242188 -7.59375 9.171875 -7.328125 9.734375 -6.796875 C 10.296875 -6.265625 10.578125 -5.503906 10.578125 -4.515625 L 10.578125 -3.125 C 10.578125 -1.039062 9.34375 0 6.875 0 L 4.40625 0 C 1.9375 0 0.703125 -1.039062 0.703125 -3.125 L 0.703125 -4.15625 L 4.859375 -4.15625 L 4.859375 -3.328125 C 4.859375 -2.953125 5.070312 -2.765625 5.5 -2.765625 L 5.796875 -2.765625 C 6.210938 -2.765625 6.421875 -2.953125 6.421875 -3.328125 Z M 6.421875 -3.328125 "/></g></g></g><g fill="#081f5c" fill-opacity="1"><g transform="translate(23.715164, 24.411219)"><g><path d="M 7.390625 -9.421875 L 5.796875 -9.421875 L 5.796875 -3.703125 C 5.796875 -3.335938 6.003906 -3.15625 6.421875 -3.15625 L 7.359375 -3.15625 L 7.359375 0 L 5.21875 0 C 2.75 0 1.515625 -1.039062 1.515625 -3.125 L 1.515625 -9.421875 L 0.125 -9.421875 L 0.125 -12.578125 L 1.515625 -12.578125 L 1.515625 -15.046875 L 5.796875 -15.046875 L 5.796875 -12.578125 L 7.390625 -12.578125 Z M 7.390625 -9.421875 "/></g></g></g><g fill="#081f5c" fill-opacity="1"><g transform="translate(31.349341, 24.411219)"><g/></g></g><g fill="#081f5c" fill-opacity="1"><g transform="translate(36.388411, 24.411219)"><g><path d="M 4.984375 -12.46875 L 4.984375 -10.640625 L 0.578125 -10.640625 L 0.578125 -13.0625 C 0.578125 -15.144531 1.8125 -16.1875 4.28125 -16.1875 L 7.328125 -16.1875 C 9.835938 -16.1875 11.09375 -15.144531 11.09375 -13.0625 L 11.09375 -10.734375 C 11.09375 -9.890625 10.953125 -9.171875 10.671875 -8.578125 C 10.390625 -7.984375 9.941406 -7.34375 9.328125 -6.65625 L 6.203125 -3.15625 L 11.09375 -3.15625 L 11.09375 0 L 0.703125 0 L 0.703125 -2.875 L 5.5 -8.015625 C 6 -8.535156 6.332031 -8.984375 6.5 -9.359375 C 6.664062 -9.742188 6.75 -10.210938 6.75 -10.765625 L 6.75 -12.46875 C 6.75 -12.84375 6.539062 -13.03125 6.125 -13.03125 L 5.625 -13.03125 C 5.195312 -13.03125 4.984375 -12.84375 4.984375 -12.46875 Z M 4.984375 -12.46875 "/></g></g></g><g fill="#081f5c" fill-opacity="1"><g transform="translate(48.205001, 24.411219)"><g><path d="M 7.28125 -3.703125 L 7.28125 -12.46875 C 7.28125 -12.84375 7.070312 -13.03125 6.65625 -13.03125 L 5.96875 -13.03125 C 5.550781 -13.03125 5.34375 -12.84375 5.34375 -12.46875 L 5.34375 -3.703125 C 5.34375 -3.335938 5.550781 -3.15625 5.96875 -3.15625 L 6.65625 -3.15625 C 7.070312 -3.15625 7.28125 -3.335938 7.28125 -3.703125 Z M 11.6875 -13.0625 L 11.6875 -3.125 C 11.6875 -1.039062 10.453125 0 7.984375 0 L 4.640625 0 C 2.171875 0 0.9375 -1.039062 0.9375 -3.125 L 0.9375 -13.0625 C 0.9375 -15.144531 2.171875 -16.1875 4.640625 -16.1875 L 7.984375 -16.1875 C 10.453125 -16.1875 11.6875 -15.144531 11.6875 -13.0625 Z M 11.6875 -13.0625 "/></g></g></g><g fill="#081f5c" fill-opacity="1"><g transform="translate(60.827841, 24.411219)"><g><path d="M 4.984375 -12.46875 L 4.984375 -10.640625 L 0.578125 -10.640625 L 0.578125 -13.0625 C 0.578125 -15.144531 1.8125 -16.1875 4.28125 -16.1875 L 7.328125 -16.1875 C 9.835938 -16.1875 11.09375 -15.144531 11.09375 -13.0625 L 11.09375 -10.734375 C 11.09375 -9.890625 10.953125 -9.171875 10.671875 -8.578125 C 10.390625 -7.984375 9.941406 -7.34375 9.328125 -6.65625 L 6.203125 -3.15625 L 11.09375 -3.15625 L 11.09375 0 L 0.703125 0 L 0.703125 -2.875 L 5.5 -8.015625 C 6 -8.535156 6.332031 -8.984375 6.5 -9.359375 C 6.664062 -9.742188 6.75 -10.210938 6.75 -10.765625 L 6.75 -12.46875 C 6.75 -12.84375 6.539062 -13.03125 6.125 -13.03125 L 5.625 -13.03125 C 5.195312 -13.03125 4.984375 -12.84375 4.984375 -12.46875 Z M 4.984375 -12.46875 "/></g></g></g><g fill="#081f5c" fill-opacity="1"><g transform="translate(72.644431, 24.411219)"><g><path d="M 5.546875 -10.65625 L 8.09375 -10.65625 C 10.5625 -10.65625 11.796875 -9.613281 11.796875 -7.53125 L 11.796875 -3.125 C 11.796875 -1.039062 10.5625 0 8.09375 0 L 4.71875 0 C 2.25 0 1.015625 -1.039062 1.015625 -3.125 L 1.015625 -5.671875 L 5.421875 -5.671875 L 5.421875 -3.703125 C 5.421875 -3.335938 5.628906 -3.15625 6.046875 -3.15625 L 6.828125 -3.15625 C 7.242188 -3.15625 7.453125 -3.335938 7.453125 -3.703125 L 7.453125 -6.953125 C 7.453125 -7.328125 7.242188 -7.515625 6.828125 -7.515625 L 1.203125 -7.515625 L 1.203125 -16.1875 L 11.546875 -16.1875 L 11.546875 -13.03125 L 5.546875 -13.03125 Z M 5.546875 -10.65625 "/></g></g></g></g></g><g transform="matrix(1, 0, 0, 1, 165, 110)"><g clip-path="url(#715fa3fc25)"><g clip-path="url(#680f97b80b)"><g fill="#081f5c" fill-opacity="1"><g transform="translate(0.144002, 58.256574)"><g><path d="M 21.5625 0 L 21.5625 -19.9375 L 12.96875 -19.9375 L 12.96875 0 L 4.359375 0 L 4.359375 -26.671875 C 4.359375 -30.203125 4.117188 -32.660156 3.640625 -34.046875 C 3.160156 -35.441406 2.15625 -37.132812 0.625 -39.125 L 8.09375 -44.359375 C 9.425781 -43.492188 10.570312 -41.882812 11.53125 -39.53125 C 12.488281 -37.1875 12.96875 -34.351562 12.96875 -31.03125 L 12.96875 -27.421875 L 21.5625 -27.421875 L 21.5625 -43.625 L 30.15625 -43.625 L 30.15625 0 Z M 21.5625 0 "/></g></g></g></g><g fill="#081f5c" fill-opacity="1"><g transform="translate(33.415633, 58.256574)"><g><path d="M 3.484375 0 L 3.484375 -43.625 L 12.09375 -43.625 L 12.09375 0 Z M 3.484375 0 "/></g></g></g><g fill="#081f5c" fill-opacity="1"><g transform="translate(48.992231, 58.256574)"><g><path d="M 2.796875 -43.625 L 11.40625 -43.625 L 11.40625 -19.375 C 11.40625 -17.050781 11.539062 -15.296875 11.8125 -14.109375 C 12.082031 -12.929688 12.691406 -11.644531 13.640625 -10.25 C 14.597656 -8.851562 15.285156 -8.15625 15.703125 -8.15625 C 16.117188 -8.15625 16.800781 -8.851562 17.75 -10.25 C 18.707031 -11.644531 19.320312 -12.929688 19.59375 -14.109375 C 19.863281 -15.296875 20 -17.050781 20 -19.375 L 20 -26.671875 C 20 -30.160156 19.757812 -32.585938 19.28125 -33.953125 C 18.800781 -35.328125 17.796875 -37.007812 16.265625 -39 L 23.734375 -44.359375 C 25.066406 -43.492188 26.207031 -41.800781 27.15625 -39.28125 C 28.113281 -36.769531 28.59375 -33.769531 28.59375 -30.28125 L 28.59375 -20 C 28.59375 -16.757812 28.28125 -14.097656 27.65625 -12.015625 C 27.039062 -9.941406 25.269531 -7.296875 22.34375 -4.078125 C 19.414062 -0.859375 17.203125 0.75 15.703125 0.75 C 14.203125 0.75 11.988281 -0.859375 9.0625 -4.078125 C 6.132812 -7.296875 4.359375 -9.941406 3.734375 -12.015625 C 3.109375 -14.097656 2.796875 -16.757812 2.796875 -20 Z M 2.796875 -43.625 "/></g></g></g><g fill="#081f5c" fill-opacity="1"><g transform="translate(79.771603, 58.256574)"><g><path d="M 11.71875 -26.546875 L 22.875 -26.546875 L 22.875 -19 L 11.71875 -19 L 11.71875 -7.546875 L 26.609375 -7.546875 L 26.609375 0 L 3.109375 0 L 3.109375 -38.390625 L 11.71875 -44.359375 L 25.609375 -44.359375 L 25.609375 -36.765625 L 14.015625 -36.765625 L 11.71875 -35.140625 Z M 11.71875 -26.546875 "/></g></g></g><g fill="#081f5c" fill-opacity="1"><g transform="translate(107.934096, 58.256574)"><g/></g></g><g fill="#081f5c" fill-opacity="1"><g transform="translate(123.510694, 58.256574)"><g><path d="M 25.546875 -43.625 L 25.546875 -36.140625 L 17.453125 -36.140625 L 17.453125 0 L 8.84375 0 L 8.84375 -36.140625 L 0.75 -36.140625 L 0.75 -43.625 Z M 25.546875 -43.625 "/></g></g></g><g fill="#081f5c" fill-opacity="1"><g transform="translate(149.803993, 58.256574)"><g><path d="M 11.71875 -26.546875 L 22.875 -26.546875 L 22.875 -19 L 11.71875 -19 L 11.71875 -7.546875 L 26.609375 -7.546875 L 26.609375 0 L 3.109375 0 L 3.109375 -38.390625 L 11.71875 -44.359375 L 25.609375 -44.359375 L 25.609375 -36.765625 L 14.015625 -36.765625 L 11.71875 -35.140625 Z M 11.71875 -26.546875 "/></g></g></g><g fill="#081f5c" fill-opacity="1"><g transform="translate(177.966486, 58.256574)"><g><path d="M 9.28125 -40.3125 C 12.226562 -43.007812 14.46875 -44.359375 16 -44.359375 C 17.539062 -44.359375 19.785156 -43.007812 22.734375 -40.3125 C 25.691406 -37.613281 27.523438 -35.394531 28.234375 -33.65625 C 28.679688 -32.445312 28.90625 -29.722656 28.90625 -25.484375 L 28.90625 0 L 20.3125 0 L 20.3125 -9.34375 L 11.71875 -9.34375 L 11.71875 0 L 3.109375 0 L 3.109375 -25.484375 C 3.109375 -29.722656 3.335938 -32.445312 3.796875 -33.65625 C 4.503906 -35.394531 6.332031 -37.613281 9.28125 -40.3125 Z M 11.71875 -25.484375 L 11.71875 -16.828125 L 20.3125 -16.828125 L 20.3125 -25.484375 C 20.3125 -28.890625 20.144531 -30.976562 19.8125 -31.75 C 19.476562 -32.519531 18.90625 -33.328125 18.09375 -34.171875 C 17.289062 -35.023438 16.597656 -35.453125 16.015625 -35.453125 C 15.429688 -35.453125 14.734375 -35.023438 13.921875 -34.171875 C 13.117188 -33.328125 12.550781 -32.519531 12.21875 -31.75 C 11.882812 -30.976562 11.71875 -28.890625 11.71875 -25.484375 Z M 11.71875 -25.484375 "/></g></g></g></g></g></svg>