<svg xmlns="http://www.w3.org/2000/svg" xmlns:xlink="http://www.w3.org/1999/xlink" width="500" zoomAndPan="magnify" viewBox="0 0 375 374.999991" height="500" preserveAspectRatio="xMidYMid meet" version="1.0"><defs><g/><clipPath id="8e03422209"><path d="M 0 87 L 138.75 87 L 138.75 240 L 0 240 Z M 0 87 " clip-rule="nonzero"/></clipPath><clipPath id="31fd7fef4e"><path d="M 19 157 L 120 157 L 120 287.929688 L 19 287.929688 Z M 19 157 " clip-rule="nonzero"/></clipPath><clipPath id="560c410675"><path d="M 0.121094 13 L 31 13 L 31 59 L 0.121094 59 Z M 0.121094 13 " clip-rule="nonzero"/></clipPath><clipPath id="9146745c21"><rect x="0" width="210" y="0" height="75"/></clipPath><clipPath id="efae7e529f"><rect x="0" width="112" y="0" height="29"/></clipPath></defs><g clip-path="url(#8e03422209)"><path fill="#ffffff" d="M 69.394531 87.0625 L 0 127.121094 L 0 207.285156 L 55.8125 239.507812 C 55.488281 232.917969 52.394531 226.773438 47.375 222.59375 L 10.40625 201.257812 L 10.40625 133.148438 L 69.394531 99.078125 L 128.378906 133.148438 L 128.378906 201.257812 L 91.410156 222.59375 C 86.390625 226.773438 83.296875 232.917969 82.972656 239.507812 L 138.785156 207.285156 L 138.785156 127.121094 Z M 69.394531 87.0625 " fill-opacity="1" fill-rule="nonzero"/></g><path fill="#fbb321" d="M 74.496094 189.644531 L 119.699219 182.210938 L 119.699219 160.59375 C 103.023438 155.167969 84.539062 157.378906 69.394531 167.183594 C 66.015625 169.394531 62.480469 171.203125 58.824219 172.609375 Z M 74.496094 189.644531 " fill-opacity="1" fill-rule="nonzero"/><g clip-path="url(#31fd7fef4e)"><path fill="#ffdc74" d="M 69.394531 167.222656 C 54.285156 157.378906 35.761719 155.167969 19.085938 160.59375 L 19.085938 196.234375 L 48.335938 213.109375 C 58.140625 218.777344 64.210938 229.261719 64.210938 240.59375 C 64.210938 246.058594 62.804688 251.402344 60.152344 256.144531 C 56.777344 262.128906 53.800781 268.519531 53.800781 272.296875 C 53.800781 280.933594 60.792969 287.925781 69.433594 287.925781 C 78.070312 287.925781 85.0625 280.933594 85.0625 272.296875 C 85.0625 268.519531 82.089844 262.128906 78.714844 256.144531 C 76.0625 251.402344 74.65625 246.019531 74.65625 240.59375 C 74.65625 229.261719 80.722656 218.777344 90.527344 213.109375 L 119.78125 196.234375 L 119.78125 173.8125 C 103.0625 179.238281 84.539062 177.027344 69.394531 167.222656 Z M 81.566406 272.335938 C 81.566406 279.046875 76.101562 284.472656 69.433594 284.472656 C 69.394531 284.511719 78.273438 281.015625 81.566406 272.335938 Z M 81.566406 272.335938 " fill-opacity="1" fill-rule="nonzero"/></g><g transform="matrix(1, 0, 0, 1, 165, 110)"><g clip-path="url(#9146745c21)"><g clip-path="url(#560c410675)"><g fill="#ffffff" fill-opacity="1"><g transform="translate(0.144002, 58.256574)"><g><path d="M 21.5625 0 L 21.5625 -19.9375 L 12.96875 -19.9375 L 12.96875 0 L 4.359375 0 L 4.359375 -26.671875 C 4.359375 -30.203125 4.117188 -32.660156 3.640625 -34.046875 C 3.160156 -35.441406 2.15625 -37.132812 0.625 -39.125 L 8.09375 -44.359375 C 9.425781 -43.492188 10.570312 -41.882812 11.53125 -39.53125 C 12.488281 -37.1875 12.96875 -34.351562 12.96875 -31.03125 L 12.96875 -27.421875 L 21.5625 -27.421875 L 21.5625 -43.625 L 30.15625 -43.625 L 30.15625 0 Z M 21.5625 0 "/></g></g></g></g><g fill="#ffffff" fill-opacity="1"><g transform="translate(33.415633, 58.256574)"><g><path d="M 3.484375 0 L 3.484375 -43.625 L 12.09375 -43.625 L 12.09375 0 Z M 3.484375 0 "/></g></g></g><g fill="#ffffff" fill-opacity="1"><g transform="translate(48.992231, 58.256574)"><g><path d="M 2.796875 -43.625 L 11.40625 -43.625 L 11.40625 -19.375 C 11.40625 -17.050781 11.539062 -15.296875 11.8125 -14.109375 C 12.082031 -12.929688 12.691406 -11.644531 13.640625 -10.25 C 14.597656 -8.851562 15.285156 -8.15625 15.703125 -8.15625 C 16.117188 -8.15625 16.800781 -8.851562 17.75 -10.25 C 18.707031 -11.644531 19.320312 -12.929688 19.59375 -14.109375 C 19.863281 -15.296875 20 -17.050781 20 -19.375 L 20 -26.671875 C 20 -30.160156 19.757812 -32.585938 19.28125 -33.953125 C 18.800781 -35.328125 17.796875 -37.007812 16.265625 -39 L 23.734375 -44.359375 C 25.066406 -43.492188 26.207031 -41.800781 27.15625 -39.28125 C 28.113281 -36.769531 28.59375 -33.769531 28.59375 -30.28125 L 28.59375 -20 C 28.59375 -16.757812 28.28125 -14.097656 27.65625 -12.015625 C 27.039062 -9.941406 25.269531 -7.296875 22.34375 -4.078125 C 19.414062 -0.859375 17.203125 0.75 15.703125 0.75 C 14.203125 0.75 11.988281 -0.859375 9.0625 -4.078125 C 6.132812 -7.296875 4.359375 -9.941406 3.734375 -12.015625 C 3.109375 -14.097656 2.796875 -16.757812 2.796875 -20 Z M 2.796875 -43.625 "/></g></g></g><g fill="#ffffff" fill-opacity="1"><g transform="translate(79.771603, 58.256574)"><g><path d="M 11.71875 -26.546875 L 22.875 -26.546875 L 22.875 -19 L 11.71875 -19 L 11.71875 -7.546875 L 26.609375 -7.546875 L 26.609375 0 L 3.109375 0 L 3.109375 -38.390625 L 11.71875 -44.359375 L 25.609375 -44.359375 L 25.609375 -36.765625 L 14.015625 -36.765625 L 11.71875 -35.140625 Z M 11.71875 -26.546875 "/></g></g></g><g fill="#ffffff" fill-opacity="1"><g transform="translate(107.934096, 58.256574)"><g/></g></g><g fill="#ffffff" fill-opacity="1"><g transform="translate(123.510694, 58.256574)"><g><path d="M 25.546875 -43.625 L 25.546875 -36.140625 L 17.453125 -36.140625 L 17.453125 0 L 8.84375 0 L 8.84375 -36.140625 L 0.75 -36.140625 L 0.75 -43.625 Z M 25.546875 -43.625 "/></g></g></g><g fill="#ffffff" fill-opacity="1"><g transform="translate(149.803993, 58.256574)"><g><path d="M 11.71875 -26.546875 L 22.875 -26.546875 L 22.875 -19 L 11.71875 -19 L 11.71875 -7.546875 L 26.609375 -7.546875 L 26.609375 0 L 3.109375 0 L 3.109375 -38.390625 L 11.71875 -44.359375 L 25.609375 -44.359375 L 25.609375 -36.765625 L 14.015625 -36.765625 L 11.71875 -35.140625 Z M 11.71875 -26.546875 "/></g></g></g><g fill="#ffffff" fill-opacity="1"><g transform="translate(177.966486, 58.256574)"><g><path d="M 9.28125 -40.3125 C 12.226562 -43.007812 14.46875 -44.359375 16 -44.359375 C 17.539062 -44.359375 19.785156 -43.007812 22.734375 -40.3125 C 25.691406 -37.613281 27.523438 -35.394531 28.234375 -33.65625 C 28.679688 -32.445312 28.90625 -29.722656 28.90625 -25.484375 L 28.90625 0 L 20.3125 0 L 20.3125 -9.34375 L 11.71875 -9.34375 L 11.71875 0 L 3.109375 0 L 3.109375 -25.484375 C 3.109375 -29.722656 3.335938 -32.445312 3.796875 -33.65625 C 4.503906 -35.394531 6.332031 -37.613281 9.28125 -40.3125 Z M 11.71875 -25.484375 L 11.71875 -16.828125 L 20.3125 -16.828125 L 20.3125 -25.484375 C 20.3125 -28.890625 20.144531 -30.976562 19.8125 -31.75 C 19.476562 -32.519531 18.90625 -33.328125 18.09375 -34.171875 C 17.289062 -35.023438 16.597656 -35.453125 16.015625 -35.453125 C 15.429688 -35.453125 14.734375 -35.023438 13.921875 -34.171875 C 13.117188 -33.328125 12.550781 -32.519531 12.21875 -31.75 C 11.882812 -30.976562 11.71875 -28.890625 11.71875 -25.484375 Z M 11.71875 -25.484375 "/></g></g></g></g></g><g transform="matrix(1, 0, 0, 1, 167, 184)"><g clip-path="url(#efae7e529f)"><g fill="#ffdc74" fill-opacity="1"><g transform="translate(0.636273, 21.903478)"><g><path d="M 10.578125 -16.515625 L 10.578125 -14.5625 L 4.03125 -14.5625 L 4.03125 -9.34375 L 10.078125 -9.34375 L 10.078125 -7.4375 L 4.03125 -7.4375 L 4.03125 -1.9375 L 10.578125 -1.9375 L 10.578125 0 L 1.890625 0 L 1.890625 -16.515625 Z M 10.578125 -16.515625 "/></g></g></g><g fill="#ffdc74" fill-opacity="1"><g transform="translate(16.032766, 21.903478)"><g><path d="M 6.03125 -16.8125 C 6.9375 -16.8125 8.117188 -16.675781 9.578125 -16.40625 L 9.53125 -14.515625 C 8.144531 -14.785156 6.976562 -14.921875 6.03125 -14.921875 C 5.050781 -14.921875 4.347656 -14.726562 3.921875 -14.34375 C 3.492188 -13.957031 3.28125 -13.367188 3.28125 -12.578125 L 3.28125 -11.921875 C 3.28125 -11.503906 3.332031 -11.171875 3.4375 -10.921875 C 3.550781 -10.679688 3.75 -10.472656 4.03125 -10.296875 C 4.320312 -10.117188 4.75 -9.9375 5.3125 -9.75 L 7.65625 -8.96875 C 8.78125 -8.582031 9.570312 -8.070312 10.03125 -7.4375 C 10.5 -6.800781 10.734375 -5.867188 10.734375 -4.640625 L 10.734375 -4.15625 C 10.734375 -2.664062 10.300781 -1.550781 9.4375 -0.8125 C 8.570312 -0.0703125 7.15625 0.296875 5.1875 0.296875 C 4.226562 0.296875 3.003906 0.128906 1.515625 -0.203125 L 1.5625 -2.140625 C 2.957031 -1.804688 4.148438 -1.640625 5.140625 -1.640625 C 6.398438 -1.640625 7.289062 -1.828125 7.8125 -2.203125 C 8.332031 -2.578125 8.59375 -3.171875 8.59375 -3.984375 L 8.59375 -4.8125 C 8.59375 -5.40625 8.460938 -5.851562 8.203125 -6.15625 C 7.941406 -6.46875 7.484375 -6.734375 6.828125 -6.953125 L 4.234375 -7.8125 C 3.078125 -8.195312 2.269531 -8.695312 1.8125 -9.3125 C 1.363281 -9.925781 1.140625 -10.851562 1.140625 -12.09375 L 1.140625 -12.375 C 1.140625 -13.832031 1.53125 -14.9375 2.3125 -15.6875 C 3.09375 -16.4375 4.332031 -16.8125 6.03125 -16.8125 Z M 6.03125 -16.8125 "/></g></g></g><g fill="#ffdc74" fill-opacity="1"><g transform="translate(30.824581, 21.903478)"><g><path d="M 12.46875 -16.515625 L 12.46875 -14.5625 L 7.6875 -14.5625 L 7.6875 0 L 5.546875 0 L 5.546875 -14.5625 L 0.75 -14.5625 L 0.75 -16.515625 Z M 12.46875 -16.515625 "/></g></g></g><g fill="#ffdc74" fill-opacity="1"><g transform="translate(47.228896, 21.903478)"><g/></g></g><g fill="#ffdc74" fill-opacity="1"><g transform="translate(54.940823, 21.903478)"><g><path d="M 3.8125 -15.453125 C 5.4375 -15.453125 6.632812 -15.125 7.40625 -14.46875 C 8.175781 -13.8125 8.5625 -12.828125 8.5625 -11.515625 L 8.5625 -10.96875 C 8.5625 -10.175781 8.425781 -9.441406 8.15625 -8.765625 C 7.894531 -8.097656 7.335938 -7.257812 6.484375 -6.25 L 2.828125 -1.84375 L 8.75 -1.84375 L 8.75 0 L 0.25 0 L 0.25 -1.640625 L 5.296875 -8.015625 C 5.765625 -8.597656 6.066406 -9.078125 6.203125 -9.453125 C 6.347656 -9.835938 6.421875 -10.332031 6.421875 -10.9375 L 6.421875 -11.390625 C 6.421875 -12.203125 6.210938 -12.78125 5.796875 -13.125 C 5.390625 -13.46875 4.726562 -13.640625 3.8125 -13.640625 C 3.351562 -13.640625 2.828125 -13.582031 2.234375 -13.46875 C 1.648438 -13.363281 1.113281 -13.234375 0.625 -13.078125 L 0.625 -14.921875 C 1.925781 -15.273438 2.988281 -15.453125 3.8125 -15.453125 Z M 3.8125 -15.453125 "/></g></g></g><g fill="#ffdc74" fill-opacity="1"><g transform="translate(67.868179, 21.903478)"><g><path d="M 6.296875 -15.453125 C 7.804688 -15.453125 8.960938 -15.019531 9.765625 -14.15625 C 10.566406 -13.289062 10.96875 -12 10.96875 -10.28125 L 10.96875 -4.859375 C 10.96875 -3.148438 10.566406 -1.863281 9.765625 -1 C 8.960938 -0.132812 7.804688 0.296875 6.296875 0.296875 C 4.785156 0.296875 3.628906 -0.132812 2.828125 -1 C 2.035156 -1.863281 1.640625 -3.148438 1.640625 -4.859375 L 1.640625 -10.28125 C 1.640625 -12 2.035156 -13.289062 2.828125 -14.15625 C 3.628906 -15.019531 4.785156 -15.453125 6.296875 -15.453125 Z M 6.296875 -13.640625 C 4.617188 -13.640625 3.78125 -12.585938 3.78125 -10.484375 L 3.78125 -4.65625 C 3.78125 -2.5625 4.617188 -1.515625 6.296875 -1.515625 C 7.984375 -1.515625 8.828125 -2.5625 8.828125 -4.65625 L 8.828125 -10.484375 C 8.828125 -12.585938 7.984375 -13.640625 6.296875 -13.640625 Z M 6.296875 -13.640625 "/></g></g></g><g fill="#ffdc74" fill-opacity="1"><g transform="translate(83.642603, 21.903478)"><g><path d="M 3.8125 -15.453125 C 5.4375 -15.453125 6.632812 -15.125 7.40625 -14.46875 C 8.175781 -13.8125 8.5625 -12.828125 8.5625 -11.515625 L 8.5625 -10.96875 C 8.5625 -10.175781 8.425781 -9.441406 8.15625 -8.765625 C 7.894531 -8.097656 7.335938 -7.257812 6.484375 -6.25 L 2.828125 -1.84375 L 8.75 -1.84375 L 8.75 0 L 0.25 0 L 0.25 -1.640625 L 5.296875 -8.015625 C 5.765625 -8.597656 6.066406 -9.078125 6.203125 -9.453125 C 6.347656 -9.835938 6.421875 -10.332031 6.421875 -10.9375 L 6.421875 -11.390625 C 6.421875 -12.203125 6.210938 -12.78125 5.796875 -13.125 C 5.390625 -13.46875 4.726562 -13.640625 3.8125 -13.640625 C 3.351562 -13.640625 2.828125 -13.582031 2.234375 -13.46875 C 1.648438 -13.363281 1.113281 -13.234375 0.625 -13.078125 L 0.625 -14.921875 C 1.925781 -15.273438 2.988281 -15.453125 3.8125 -15.453125 Z M 3.8125 -15.453125 "/></g></g></g><g fill="#ffdc74" fill-opacity="1"><g transform="translate(96.569959, 21.903478)"><g><path d="M 9.015625 -13.390625 L 3.328125 -13.390625 L 3.328125 -8.46875 C 4.285156 -9.238281 5.425781 -9.625 6.75 -9.625 C 7.914062 -9.625 8.785156 -9.285156 9.359375 -8.609375 C 9.941406 -7.929688 10.234375 -6.84375 10.234375 -5.34375 L 10.234375 -4.4375 C 10.234375 -1.28125 8.59375 0.296875 5.3125 0.296875 C 4.726562 0.296875 4.082031 0.238281 3.375 0.125 C 2.664062 0.0195312 2.046875 -0.101562 1.515625 -0.25 L 1.515625 -1.984375 C 2.003906 -1.890625 2.648438 -1.785156 3.453125 -1.671875 C 4.253906 -1.566406 4.859375 -1.515625 5.265625 -1.515625 C 6.191406 -1.515625 6.894531 -1.757812 7.375 -2.25 C 7.851562 -2.75 8.09375 -3.476562 8.09375 -4.4375 L 8.09375 -5.421875 C 8.09375 -7.035156 7.46875 -7.84375 6.21875 -7.84375 C 5.550781 -7.84375 4.957031 -7.710938 4.4375 -7.453125 C 3.925781 -7.203125 3.410156 -6.785156 2.890625 -6.203125 L 1.265625 -6.203125 L 1.265625 -15.21875 L 9.015625 -15.21875 Z M 9.015625 -13.390625 "/></g></g></g></g></g></svg>